<svg id="Layer_1" data-name="Layer 1" xmlns="http://www.w3.org/2000/svg" viewBox="0 0 30 36"><defs><style>.cls-1{fill:#1c67a8;}.cls-2{fill:#fff;}</style></defs><path class="cls-1" d="M18.88,0H3.25A3.26,3.26,0,0,0,0,3.25v29.5A3.26,3.26,0,0,0,3.25,36h23.5A3.26,3.26,0,0,0,30,32.75V11.26Z"/><polygon class="cls-2" points="17.03 13.07 26.07 13.07 17.14 4.14 17.03 13.07"/><path class="cls-2" d="M12.4,26.62,11.63,29h-1l2.52-7.41h1.15L16.85,29h-1L15,26.62Zm2.43-.75-.73-2.13c-.16-.48-.27-.93-.38-1.35h0c-.1.43-.22.88-.37,1.34l-.73,2.14Z"/><path class="cls-2" d="M19,22.13a.58.58,0,0,1-.62.6.57.57,0,0,1-.58-.6.59.59,0,0,1,.6-.6A.58.58,0,0,1,19,22.13ZM17.87,29V23.63h1V29Z"/></svg>