<svg id="Layer_1" data-name="Layer 1" xmlns="http://www.w3.org/2000/svg" viewBox="0 0 30 36"><defs><style>.cls-1{fill:#1c67a8;}.cls-2{fill:#fff;}</style></defs><path class="cls-1" d="M18.88,0H3.25A3.26,3.26,0,0,0,0,3.25v29.5A3.26,3.26,0,0,0,3.25,36h23.5A3.26,3.26,0,0,0,30,32.75V11.26Z"/><polygon class="cls-2" points="17.03 13.07 26.07 13.07 17.14 4.14 17.03 13.07"/><path class="cls-2" d="M5.19,21.64a12.33,12.33,0,0,1,2-.16,4.27,4.27,0,0,1,3,.93,3.37,3.37,0,0,1,1,2.66A4,4,0,0,1,10.22,28,4.64,4.64,0,0,1,6.93,29a17.14,17.14,0,0,1-1.74-.08Zm1,6.56a6.77,6.77,0,0,0,1,.05,2.84,2.84,0,0,0,3.15-3.15c0-1.75-1-2.85-3-2.85a6,6,0,0,0-1.12.09Z"/><path class="cls-2" d="M18.86,25.17c0,2.55-1.55,3.91-3.44,3.91s-3.34-1.53-3.34-3.77,1.46-3.89,3.44-3.89S18.86,23,18.86,25.17Zm-5.76.12c0,1.59.86,3,2.37,3s2.38-1.4,2.38-3.09c0-1.47-.77-3-2.37-3S13.1,23.67,13.1,25.29Z"/><path class="cls-2" d="M25.28,28.72a4.87,4.87,0,0,1-2,.35,3.47,3.47,0,0,1-3.66-3.76,3.68,3.68,0,0,1,3.87-3.89,4,4,0,0,1,1.76.33l-.23.78a3.56,3.56,0,0,0-1.49-.31,2.76,2.76,0,0,0-2.9,3.06,2.69,2.69,0,0,0,2.84,3A3.86,3.86,0,0,0,25.09,28Z"/></svg>