<svg id="Layer_1" data-name="Layer 1" xmlns="http://www.w3.org/2000/svg" viewBox="0 0 30 36"><defs><style>.cls-1{fill:#1c67a8;}.cls-2{fill:#fff;}</style></defs><path class="cls-1" d="M18.88,0H3.25A3.26,3.26,0,0,0,0,3.25v29.5A3.26,3.26,0,0,0,3.25,36h23.5A3.26,3.26,0,0,0,30,32.75V11.26Z"/><polygon class="cls-2" points="17.03 13.07 26.07 13.07 17.14 4.14 17.03 13.07"/><path class="cls-2" d="M11.33,25.48H8.45v2.68h3.22V29H7.49V21.54h4v.8H8.45v2.35h2.88Z"/><path class="cls-2" d="M12.9,21.63a10.68,10.68,0,0,1,1.84-.15,3,3,0,0,1,2.08.62,2,2,0,0,1,.66,1.55,2.19,2.19,0,0,1-.58,1.59,3.07,3.07,0,0,1-2.27.81,3,3,0,0,1-.77-.07v3h-1Zm1,3.57a3,3,0,0,0,.79.08c1.16,0,1.87-.57,1.87-1.58s-.71-1.46-1.76-1.46a5.29,5.29,0,0,0-.9.07Z"/><path class="cls-2" d="M18.63,27.79a3.41,3.41,0,0,0,1.71.48c1,0,1.56-.51,1.56-1.27s-.41-1.09-1.41-1.46c-1.21-.43-2-1.07-2-2.11a2.14,2.14,0,0,1,2.41-2,3.41,3.41,0,0,1,1.63.36l-.27.79a2.77,2.77,0,0,0-1.4-.36c-1,0-1.4.61-1.4,1.11,0,.69.45,1,1.48,1.43,1.25.49,1.89,1.09,1.89,2.18s-.84,2.14-2.6,2.14a3.83,3.83,0,0,1-1.89-.48Z"/></svg>