<svg id="Layer_1" data-name="Layer 1" xmlns="http://www.w3.org/2000/svg" viewBox="0 0 30 36"><defs><style>.cls-1{fill:#1c67a8;}.cls-2{fill:#fff;}</style></defs><path class="cls-1" d="M18.88,0H3.25A3.26,3.26,0,0,0,0,3.25v29.5A3.26,3.26,0,0,0,3.25,36h23.5A3.26,3.26,0,0,0,30,32.75V11.26Z"/><polygon class="cls-2" points="17.03 13.07 26.07 13.07 17.14 4.14 17.03 13.07"/><path class="cls-2" d="M8.84,21.54h1v5c0,2-1,2.58-2.24,2.58a3.06,3.06,0,0,1-1-.18l.14-.78a2.23,2.23,0,0,0,.81.14c.85,0,1.36-.39,1.36-1.84Z"/><path class="cls-2" d="M11.39,21.63a10.68,10.68,0,0,1,1.84-.15,3,3,0,0,1,2.08.62A2,2,0,0,1,16,23.65a2.22,2.22,0,0,1-.57,1.59,3.09,3.09,0,0,1-2.27.81,3,3,0,0,1-.77-.07v3h-1Zm1,3.57a3,3,0,0,0,.79.08c1.16,0,1.86-.57,1.86-1.58s-.7-1.46-1.75-1.46a5.19,5.19,0,0,0-.9.07Z"/><path class="cls-2" d="M22.89,28.62a6.77,6.77,0,0,1-2.28.41,3.48,3.48,0,0,1-3.8-3.73,3.71,3.71,0,0,1,4-3.84,4.71,4.71,0,0,1,1.85.34l-.24.79a3.76,3.76,0,0,0-1.64-.32,2.77,2.77,0,0,0-3,3,2.71,2.71,0,0,0,2.86,3A3.07,3.07,0,0,0,22,28V25.83h-1.5v-.77h2.44Z"/></svg>