<svg id="Layer_1" data-name="Layer 1" xmlns="http://www.w3.org/2000/svg" viewBox="0 0 30 36"><defs><style>.cls-1{fill:#1c67a8;}.cls-2{fill:#fff;}</style></defs><path class="cls-1" d="M18.88,0H3.25A3.26,3.26,0,0,0,0,3.25v29.5A3.26,3.26,0,0,0,3.25,36h23.5A3.26,3.26,0,0,0,30,32.75V11.26Z"/><polygon class="cls-2" points="17.03 13.07 26.07 13.07 17.14 4.14 17.03 13.07"/><path class="cls-2" d="M5.73,21.63a10.81,10.81,0,0,1,1.85-.15,3.06,3.06,0,0,1,2.08.62,2,2,0,0,1,.65,1.55,2.19,2.19,0,0,1-.58,1.59,3.07,3.07,0,0,1-2.26.81A3.1,3.1,0,0,1,6.69,26v3h-1Zm1,3.57a3,3,0,0,0,.8.08c1.16,0,1.86-.57,1.86-1.58s-.7-1.46-1.75-1.46a5.43,5.43,0,0,0-.91.07Z"/><path class="cls-2" d="M11.59,29V21.54h1.05L15,25.29a22.08,22.08,0,0,1,1.32,2.41h0c-.08-1-.1-1.89-.1-3V21.54h.9V29h-1L13.83,25.2a25,25,0,0,1-1.38-2.49h0c.06.94.07,1.84.07,3.06V29Z"/><path class="cls-2" d="M24.48,28.62A6.77,6.77,0,0,1,22.2,29a3.84,3.84,0,0,1-2.78-1,3.79,3.79,0,0,1-1-2.75,3.72,3.72,0,0,1,4-3.84,4.73,4.73,0,0,1,1.86.34l-.24.79a3.79,3.79,0,0,0-1.64-.32,2.77,2.77,0,0,0-3,3,2.72,2.72,0,0,0,2.86,3,3.16,3.16,0,0,0,1.28-.2V25.83H22v-.77h2.45Z"/></svg>