<svg id="Layer_1" data-name="Layer 1" xmlns="http://www.w3.org/2000/svg" viewBox="0 0 30 36"><defs><style>.cls-1{fill:#1c67a8;}.cls-2{fill:#fff;}</style></defs><path class="cls-1" d="M18.88,0H3.25A3.26,3.26,0,0,0,0,3.25v29.5A3.26,3.26,0,0,0,3.25,36h23.5A3.26,3.26,0,0,0,30,32.75V11.26Z"/><polygon class="cls-2" points="17.03 13.07 26.07 13.07 17.14 4.14 17.03 13.07"/><path class="cls-2" d="M6.38,27.79a3.38,3.38,0,0,0,1.71.48c1,0,1.55-.51,1.55-1.27s-.4-1.09-1.4-1.46c-1.21-.43-2-1.07-2-2.11a2.14,2.14,0,0,1,2.4-2,3.49,3.49,0,0,1,1.64.36l-.27.79a2.81,2.81,0,0,0-1.4-.36c-1,0-1.4.61-1.4,1.11,0,.69.45,1,1.47,1.43,1.26.49,1.89,1.09,1.89,2.18S9.78,29.07,8,29.07a3.9,3.9,0,0,1-1.9-.48Z"/><path class="cls-2" d="M13.56,29l-2.43-7.41h1l1.15,3.66c.32,1,.59,1.9.8,2.76h0c.21-.86.51-1.79.85-2.75l1.25-3.67h1L14.61,29Z"/><path class="cls-2" d="M23.71,28.62a6.77,6.77,0,0,1-2.28.41,3.48,3.48,0,0,1-3.8-3.73,3.71,3.71,0,0,1,4-3.84,4.71,4.71,0,0,1,1.85.34l-.24.79a3.76,3.76,0,0,0-1.64-.32,2.77,2.77,0,0,0-3,3,2.71,2.71,0,0,0,2.86,3,3.1,3.1,0,0,0,1.27-.2V25.83h-1.5v-.77h2.44Z"/></svg>