<svg id="Layer_1" data-name="Layer 1" xmlns="http://www.w3.org/2000/svg" viewBox="0 0 30 36"><defs><style>.cls-1{fill:#1c67a8;}.cls-2{fill:#fff;}</style></defs><path class="cls-1" d="M18.88,0H3.25A3.26,3.26,0,0,0,0,3.25v29.5A3.26,3.26,0,0,0,3.25,36h23.5A3.26,3.26,0,0,0,30,32.75V11.26Z"/><polygon class="cls-2" points="17.03 13.07 26.07 13.07 17.14 4.14 17.03 13.07"/><path class="cls-2" d="M8.05,28.39l4.11-6v0H8.4v-.8h5v.58l-4.08,6v0h4.14V29H8.05Z"/><path class="cls-2" d="M15.6,21.54V29h-1V21.54Z"/><path class="cls-2" d="M17.26,21.63a10.81,10.81,0,0,1,1.85-.15,3,3,0,0,1,2.07.62,2,2,0,0,1,.66,1.55,2.19,2.19,0,0,1-.58,1.59,3.07,3.07,0,0,1-2.27.81,3,3,0,0,1-.77-.07v3h-1Zm1,3.57a3,3,0,0,0,.79.08c1.17,0,1.87-.57,1.87-1.58s-.7-1.46-1.75-1.46a5.33,5.33,0,0,0-.91.07Z"/></svg>