<?xml version="1.0" encoding="utf-8"?>
<!-- Generator: Adobe Illustrator 24.1.2, SVG Export Plug-In . SVG Version: 6.00 Build 0)  -->
<svg version="1.1" id="Layer_1" xmlns="http://www.w3.org/2000/svg" xmlns:xlink="http://www.w3.org/1999/xlink" x="0px" y="0px"
	 viewBox="0 0 595.3 110.2" style="enable-background:new 0 0 595.3 110.2;" xml:space="preserve">
<style type="text/css">
	.st0{fill:#1A68A9;}
</style>
<g>
	<path class="st0" d="M50.8,12.2l24.6,88.5H49.6l-5.3-19.2H17.7l-5.6,19.2H2l26.2-88.5H50.8z M20.2,72.6H42L31.5,33.4L20.2,72.6z"/>
	<path class="st0" d="M122.6,12.2l24.6,88.5h-25.8l-5.3-19.2H89.5l-5.6,19.2H73.8L100,12.2H122.6z M92,72.6h21.7l-10.4-39.2L92,72.6
		z"/>
	<path class="st0" d="M216.3,12.2v8.9h-21.7v79.7h-27.2V21.1h-21.9v-8.9H216.3z"/>
	<path class="st0" d="M268.7,76.8l9.5,2.8c-1,15.1-9.9,22.6-26.7,22.6c-21.8,0-32.7-10.9-32.7-32.6c0-10.6,2.9-19.2,8.7-25.9
		c5.8-6.7,13.2-10.1,22.2-10.1c18.9,0,28.3,12.2,28.3,36.6h-34.5c0,17.1,4.3,25.7,13,25.7c8.1,0,12.2-4.8,12.2-14.5
		C268.9,80,268.8,78.5,268.7,76.8z M243.6,62.8h14.1c0-15.2-2.3-22.8-6.9-22.8c-4.2,0-6.5,5.6-7,16.9L243.6,62.8z"/>
	<path class="st0" d="M339.3,52.1l-11.5,2c0-9.8-4.5-14.7-13.6-14.7c-5.6,0-8.4,2.3-8.4,6.9c0,3.4,4.8,7,14.4,10.9
		c14.7,6,22.1,13.6,22.1,22.9c0,14.7-9.4,22.1-28.1,22.1c-19.8,0-29.7-7.4-29.7-22.1l12.2-2.5c-0.2,1.4-0.3,2.8-0.3,4
		c0,3.8,1.6,7.1,4.8,9.9c3.2,2.8,6.9,4.2,11.3,4.2c5.7,0,8.6-2.4,8.6-7.3c0-3.2-4.6-6.8-13.8-10.8c-13.9-6-20.8-13.6-20.8-23
		c0-6.2,2.7-11.3,8-15.2c5.3-4,12.2-5.9,20.5-5.9C329.7,33.7,337.8,39.9,339.3,52.1z"/>
	<path class="st0" d="M387,35.5v7.3h-10.5v46.3c0,2.9,0.9,4.3,2.8,4.3c1.3,0,2.1-1,2.4-2.9l6.7,0.6c-1.9,6.8-7.8,10.2-17.8,10.2
		c-11.9,0-17.8-5.1-17.8-15.2V42.9h-7.9v-7.3h7.9V24c8.2-2.2,16.1-5.5,23.7-9.7v21.3H387z"/>
	<path class="st0" d="M421.3,12.2v79.7h36.4v8.9h-62.1V12.2H421.3z"/>
	<path class="st0" d="M528,98.4c-5.8,2.2-11.4,3.4-16.9,3.4c-8.1,0-13.1-2.5-15-7.6c-3.9,5.3-9.6,7.9-17,7.9
		c-13.8,0-20.7-6.4-20.7-19.2c0-9.7,6.3-16.6,18.9-20.5c11.6-3.6,17.4-8,17.4-13.1c0-6.7-3.3-10.1-10-10.1c-7.7,0-11.5,3.2-11.5,9.7
		c0,2,0.6,4.7,1.8,8l-11.7-2.3c-0.3-2-0.5-3.9-0.5-5.7c0-10.4,9.5-15.6,28.4-15.6c18,0,27,4.8,27,14.5v39.7c0,4.1,1.3,6.1,4,6.1
		c0.8,0,2-0.5,3.6-1.4L528,98.4z M494.5,61.4c-1.5,1.7-3.2,3.1-5.1,4.2c-4.9,2.9-7.3,7.7-7.3,14.4c0,8.6,1.7,13,5.1,13
		c4.9,0,7.4-4.3,7.4-12.8V61.4z"/>
	<path class="st0" d="M532.1,100.7V12.2c3.8,0,11.7-0.5,23.7-1.4v31.5c4.4-5.8,9.3-8.6,14.7-8.6c15.5,0,23.2,10.7,23.2,32.2
		c0,24.2-9.2,36.3-27.6,36.3c-8.7,0-16.1-4.1-22.2-12.3l-5.8,10.8H532.1z M563.2,43.2c-5.2,0-7.8,7.6-7.8,22.7
		c0,17.8,2.6,26.7,7.7,26.7c4.5,0,6.7-4.6,6.7-13.9l0.4-16l-0.5-9C569,46.7,566.8,43.2,563.2,43.2z"/>
</g>
</svg>
